{"title":"Gangster Squad 2013 WEBRip 720p XVID AC3 BHRG","uid":8340835,"size":2946215819,"categoryP":"video","categoryS":"hd___movies","magnet":"?xt=urn:btih:9c2e0287fd1f0a48225716e460330bb7afcf41b5&amp;dn=Gangster+Squad+2013+WEBRip+720p+XVID+AC3+BHRG&amp;tr=udp%3A%2F%2Ftracker.openbittorrent.com%3A80&amp;tr=udp%3A%2F%2Fopen.demonii.com%3A1337&amp;tr=udp%3A%2F%2Ftracker.coppersurfer.tk%3A6969&amp;tr=udp%3A%2F%2Fexodus.desync.com%3A6969","seeders":1,"leechers":0,"uploader":"Gh0stNet","files":3,"time":1365096917,"description":"Format                                   : AVI\nFormat/Info                              : Audio Video Interleave\nFormat profile                           : OpenDML\nFile size                                : 2.73 GiB\nDuration                                 : 1h 52mn\nOverall bit rate                         : 3 462 Kbps\nWriting library                          : VirtualDub build 30091/release\n\nVideo\nID                                       : 0\nFormat                                   : MPEG-4 Visual\nFormat profile                           : Advanced Simple@L5\nFormat settings, BVOP                    : 2\nFormat settings, QPel                    : No\nFormat settings, GMC                     : No warppoints\nFormat settings, Matrix                  : Default (H.263)\nMuxing mode                              : Packed bitstream\nCodec ID                                 : XVID\nCodec ID/Hint                            : XviD\nDuration                                 : 1h 52mn\nBit rate                                 : 3 196 Kbps\nWidth                                    : 1 280 pixels\nHeight                                   : 544 pixels\nDisplay aspect ratio                     : 2.35:1\nFrame rate                               : 23.976 fps\nColor space                              : YUV\nChroma subsampling                       : 4:2:0\nBit depth                                : 8 bits\nScan type                                : Progressive\nCompression mode                         : Lossy\nBits/(Pixel*Frame)                       : 0.191\nStream size                              : 2.52 GiB (92%)\nWriting library                          : XviD 1.2.1 (UTC 2008-12-04)\n\nAudio\nID                                       : 1\nFormat                                   : AC-3\nFormat/Info                              : Audio Coding 3\nMode extension                           : CM (complete main)\nFormat settings, Endianness              : Big\nCodec ID                                 : 2000\nDuration                                 : 1h 52mn\nBit rate mode                            : Constant\nBit rate                                 : 256 Kbps\nChannel(s)                               : 2 channels\nChannel positions                        : Front: L R\nSampling rate                            : 48.0 KHz\nBit depth                                : 16 bits\nCompression mode                         : Lossy\nStream size                              : 207 MiB (7%)\n\nScreens: &lt;a href=&quot;\nhttp://i.imgur.com/g2we4rU.png&quot; rel=&quot;nofollow&quot; target=&quot;_NEW&quot;&gt;\nhttp://i.imgur.com/g2we4rU.png&lt;/a&gt; &lt;a href=&quot;\nhttp://i.imgur.com/KHb49v1.png&quot; rel=&quot;nofollow&quot; target=&quot;_NEW&quot;&gt;\nhttp://i.imgur.com/KHb49v1.png&lt;/a&gt; &lt;a href=&quot;\nhttp://i.imgur.com/JMlM6nk.jpg&quot; rel=&quot;nofollow&quot; target=&quot;_NEW&quot;&gt;\nhttp://i.imgur.com/JMlM6nk.jpg&lt;/a&gt; &lt;a href=&quot;\nhttp://i.imgur.com/XA8BGPS.jpg&quot; rel=&quot;nofollow&quot; target=&quot;_NEW&quot;&gt;\nhttp://i.imgur.com/XA8BGPS.jpg&lt;/a&gt;","torrent":{"xt":"urn:btih:9c2e0287fd1f0a48225716e460330bb7afcf41b5","amp;dn":"Gangster+Squad+2013+WEBRip+720p+XVID+AC3+BHRG","amp;tr":["udp%3A%2F%2Ftracker.openbittorrent.com%3A80","udp%3A%2F%2Fopen.demonii.com%3A1337","udp%3A%2F%2Ftracker.coppersurfer.tk%3A6969","udp%3A%2F%2Fexodus.desync.com%3A6969"],"infoHash":"9c2e0287fd1f0a48225716e460330bb7afcf41b5","infoHashBuffer":{"type":"Buffer","data":[156,46,2,135,253,31,10,72,34,87,22,228,96,51,11,183,175,207,65,181]},"announce":[],"urlList":[]}}